<?xml version="1.0" encoding="utf-8"?>
<!-- Generator: Adobe Illustrator 25.0.1, SVG Export Plug-In . SVG Version: 6.00 Build 0)  -->
<svg version="1.1" id="Calque_1" xmlns="http://www.w3.org/2000/svg" xmlns:xlink="http://www.w3.org/1999/xlink" x="0px" y="0px"
	 viewBox="0 0 3038.67 773.84" style="enable-background:new 0 0 3038.67 773.84;" xml:space="preserve">
<style type="text/css">
	.st0{fill:#167ffb;}
	.st1{fill:#FFFFFF;}
</style>
<g>
	<path class="st0" d="M747.85,760.16h-45.12l-72.46-100.49c-17.77,15.96-36.57,30.88-56.4,44.78
		c-19.82,13.91-40.67,25.98-62.55,36.23s-44.33,18.35-67.33,24.27c-23.02,5.92-46.38,8.89-70.07,8.89
		c-51.5,0-99.92-8.66-145.26-25.98c-45.35-17.31-85-42.49-118.95-75.54c-33.96-33.04-60.73-73.49-80.32-121.34
		C9.79,503.13,0,448.68,0,387.6c0-56.96,9.79-109.26,29.39-156.88c19.59-47.62,46.37-88.53,80.32-122.71s73.59-60.72,118.95-79.64
		C274,9.46,322.42,0,373.92,0c23.69,0,47.17,2.97,70.41,8.89c23.24,5.93,45.8,14.13,67.68,24.61
		c21.88,10.49,42.72,22.79,62.55,36.91c19.82,14.13,38.39,29.39,55.71,45.8l72.46-86.82h45.12L747.85,760.16L747.85,760.16z
		 M559.86,387.6c0-25.52-4.9-50.24-14.7-74.17c-9.8-23.93-23.13-45.12-39.99-63.57c-16.87-18.46-36.57-33.26-59.13-44.43
		c-22.56-11.16-46.6-16.75-72.12-16.75c-25.53,0-49.56,4.34-72.12,12.99c-22.56,8.66-42.16,21.43-58.79,38.28
		c-16.64,16.87-29.74,37.71-39.31,62.55c-9.57,24.84-14.36,53.21-14.36,85.11s4.79,60.27,14.36,85.11s22.67,45.69,39.31,62.55
		c16.63,16.87,36.23,29.63,58.79,38.28c22.56,8.66,46.59,12.99,72.12,12.99c25.52,0,49.56-5.58,72.12-16.75
		c22.56-11.16,42.27-25.98,59.13-44.43c16.86-18.46,30.19-39.65,39.99-63.57C554.96,437.84,559.86,413.12,559.86,387.6z"/>
	<path class="st1" d="M1131.93,760.16c-32.23,0-62.5-6.1-90.82-18.31s-53.14-28.96-74.46-50.29
		c-21.33-21.32-38.09-46.14-50.29-74.46s-18.31-58.59-18.31-90.82V371.01h-64.94V238.18h64.94V29.2h132.81v208.98h202.15v132.81
		h-202.15v155.27c0,14,2.6,27.1,7.81,39.31c5.21,12.21,12.36,22.87,21.48,31.98c9.11,9.12,19.85,16.36,32.23,21.73
		c12.36,5.37,25.55,8.06,39.55,8.06H1233v132.81L1131.93,760.16L1131.93,760.16z"/>
	<path class="st1" d="M1441.99,760.16h-134.28V29.2h134.28L1441.99,760.16L1441.99,760.16z"/>
	<path class="st1" d="M2049.9,760.16h-32.23l-51.76-71.78c-12.7,11.4-26.12,22.06-40.28,31.98c-14.16,9.93-29.05,18.55-44.68,25.88
		s-31.66,13.11-48.1,17.33c-16.45,4.23-33.12,6.35-50.05,6.35c-36.79,0-71.38-6.18-103.76-18.55
		c-32.39-12.36-60.71-30.35-84.96-53.96c-24.26-23.59-43.38-52.49-57.37-86.67c-14-34.18-21-73.08-21-116.7
		c0-40.68,6.99-78.04,21-112.06c13.99-34.01,33.12-63.23,57.37-87.65c24.25-24.41,52.57-43.37,84.96-56.88
		c32.38-13.51,66.97-20.26,103.76-20.26c16.92,0,33.69,2.12,50.29,6.35s32.71,10.09,48.34,17.58c15.62,7.49,30.52,16.28,44.68,26.37
		s27.42,21,39.79,32.71l51.76-62.01h32.23v521.97H2049.9z M1915.62,494.04c0-18.22-3.51-35.89-10.5-52.98
		c-7-17.09-16.52-32.23-28.56-45.41c-12.05-13.18-26.12-23.76-42.24-31.74c-16.11-7.97-33.29-11.96-51.51-11.96
		c-18.23,0-35.4,3.1-51.51,9.28c-16.11,6.19-30.12,15.3-41.99,27.34c-11.88,12.05-21.24,26.94-28.08,44.68
		c-6.84,17.74-10.25,38.01-10.25,60.79c0,22.79,3.42,43.06,10.25,60.79c6.84,17.74,16.19,32.64,28.08,44.68
		c11.88,12.05,25.88,21.16,41.99,27.34c16.11,6.19,33.28,9.28,51.51,9.28c18.22,0,35.4-3.98,51.51-11.96
		c16.11-7.97,30.19-18.55,42.24-31.74c12.04-13.18,21.56-28.32,28.56-45.41C1912.12,529.93,1915.62,512.27,1915.62,494.04z"/>
	<path class="st1" d="M2438.57,760.16h-304.69V627.35h304.69c9.11,0,16.92-3.25,23.44-9.77c6.5-6.5,9.77-14.32,9.77-23.44
		c0-9.43-3.26-15.62-9.77-18.55s-14.33-4.39-23.44-4.39H2299.9c-23.12,0-44.77-4.39-64.94-13.18
		c-20.19-8.79-37.76-20.75-52.73-35.89c-14.98-15.14-26.78-32.79-35.4-52.98c-8.63-20.18-12.94-41.83-12.94-64.94
		c0-23.11,4.31-44.76,12.94-64.94c8.62-20.18,20.42-37.76,35.4-52.73c14.97-14.97,32.55-26.77,52.73-35.4
		c20.18-8.62,41.83-12.94,64.94-12.94h270.02v132.81H2299.9c-9.12,0-16.93,3.26-23.44,9.77s-9.77,14.33-9.77,23.44
		c0,9.44,3.25,17.5,9.77,24.17c6.5,6.67,14.32,10.01,23.44,10.01h138.67c22.78,0,44.27,3.83,64.45,11.47
		c20.18,7.66,37.75,18.31,52.73,31.98c14.97,13.67,26.86,30.12,35.64,49.32c8.79,19.21,13.18,40.21,13.18,62.99
		c0,23.12-4.39,44.68-13.18,64.7s-20.67,37.6-35.64,52.73c-14.98,15.14-32.56,27.02-52.73,35.64
		C2482.84,755.85,2461.35,760.16,2438.57,760.16z"/>
	<path class="st1" d="M2937.59,760.16c-32.23,0-62.5-6.1-90.82-18.31s-53.14-28.96-74.46-50.29
		c-21.33-21.32-38.09-46.14-50.29-74.46s-18.31-58.59-18.31-90.82V371.01h-64.94V238.18h64.94V29.2h132.81v208.98h202.15v132.81
		h-202.15v155.27c0,14,2.6,27.1,7.81,39.31c5.21,12.21,12.36,22.87,21.48,31.98c9.11,9.12,19.85,16.36,32.23,21.73
		c12.36,5.37,25.55,8.06,39.55,8.06h101.07v132.81L2937.59,760.16L2937.59,760.16z"/>
</g>
</svg>
